<mxfile host="app.diagrams.net" modified="2024-01-10T02:50:21.327Z" agent="Mozilla/5.0 (Windows NT 10.0; Win64; x64) AppleWebKit/537.36 (KHTML, like Gecko) Chrome/119.0.0.0 Safari/537.36 OPR/105.0.0.0" etag="BDXX448bHvrsQQwjrcsp" version="22.1.17" type="device">
  <diagram name="Page-1" id="a1kwcBFzOVKtp2sK1Yy9">
    <mxGraphModel dx="2625" dy="836" grid="1" gridSize="10" guides="1" tooltips="1" connect="1" arrows="1" fold="1" page="1" pageScale="1" pageWidth="850" pageHeight="1100" math="0" shadow="0">
      <root>
        <mxCell id="0" />
        <mxCell id="1" parent="0" />
        <mxCell id="VgLmgjp3VI7VRG0Y28cR-11" style="edgeStyle=orthogonalEdgeStyle;rounded=0;orthogonalLoop=1;jettySize=auto;html=1;exitX=0.5;exitY=0.5;exitDx=0;exitDy=0;exitPerimeter=0;entryX=1;entryY=0.5;entryDx=0;entryDy=0;" parent="1" source="VgLmgjp3VI7VRG0Y28cR-1" target="VgLmgjp3VI7VRG0Y28cR-9" edge="1">
          <mxGeometry relative="1" as="geometry">
            <mxPoint x="360" y="119.5" as="targetPoint" />
          </mxGeometry>
        </mxCell>
        <mxCell id="VgLmgjp3VI7VRG0Y28cR-1" value="User" style="shape=umlActor;verticalLabelPosition=bottom;verticalAlign=top;html=1;outlineConnect=0;" parent="1" vertex="1">
          <mxGeometry x="410" y="100" width="30" height="60" as="geometry" />
        </mxCell>
        <mxCell id="VgLmgjp3VI7VRG0Y28cR-16" style="edgeStyle=orthogonalEdgeStyle;rounded=0;orthogonalLoop=1;jettySize=auto;html=1;exitX=0.5;exitY=0;exitDx=0;exitDy=0;exitPerimeter=0;" parent="1" source="VgLmgjp3VI7VRG0Y28cR-2" target="VgLmgjp3VI7VRG0Y28cR-1" edge="1">
          <mxGeometry relative="1" as="geometry" />
        </mxCell>
        <mxCell id="VgLmgjp3VI7VRG0Y28cR-18" style="edgeStyle=orthogonalEdgeStyle;rounded=0;orthogonalLoop=1;jettySize=auto;html=1;exitX=0;exitY=0.3333333333333333;exitDx=0;exitDy=0;exitPerimeter=0;entryX=1;entryY=0.5;entryDx=0;entryDy=0;" parent="1" source="VgLmgjp3VI7VRG0Y28cR-2" target="VgLmgjp3VI7VRG0Y28cR-10" edge="1">
          <mxGeometry relative="1" as="geometry" />
        </mxCell>
        <mxCell id="VgLmgjp3VI7VRG0Y28cR-19" style="edgeStyle=orthogonalEdgeStyle;rounded=0;orthogonalLoop=1;jettySize=auto;html=1;exitX=0;exitY=0.3333333333333333;exitDx=0;exitDy=0;exitPerimeter=0;entryX=1;entryY=0.5;entryDx=0;entryDy=0;" parent="1" source="VgLmgjp3VI7VRG0Y28cR-2" target="VgLmgjp3VI7VRG0Y28cR-8" edge="1">
          <mxGeometry relative="1" as="geometry" />
        </mxCell>
        <mxCell id="VgLmgjp3VI7VRG0Y28cR-20" style="edgeStyle=orthogonalEdgeStyle;rounded=0;orthogonalLoop=1;jettySize=auto;html=1;exitX=0;exitY=0.3333333333333333;exitDx=0;exitDy=0;exitPerimeter=0;entryX=1;entryY=0.5;entryDx=0;entryDy=0;" parent="1" source="VgLmgjp3VI7VRG0Y28cR-2" target="VgLmgjp3VI7VRG0Y28cR-7" edge="1">
          <mxGeometry relative="1" as="geometry" />
        </mxCell>
        <mxCell id="VgLmgjp3VI7VRG0Y28cR-21" style="edgeStyle=orthogonalEdgeStyle;rounded=0;orthogonalLoop=1;jettySize=auto;html=1;exitX=0.5;exitY=0.5;exitDx=0;exitDy=0;exitPerimeter=0;" parent="1" source="VgLmgjp3VI7VRG0Y28cR-2" target="VgLmgjp3VI7VRG0Y28cR-6" edge="1">
          <mxGeometry relative="1" as="geometry" />
        </mxCell>
        <mxCell id="VgLmgjp3VI7VRG0Y28cR-23" style="edgeStyle=orthogonalEdgeStyle;rounded=0;orthogonalLoop=1;jettySize=auto;html=1;exitX=1;exitY=0.3333333333333333;exitDx=0;exitDy=0;exitPerimeter=0;entryX=0;entryY=0.5;entryDx=0;entryDy=0;" parent="1" source="VgLmgjp3VI7VRG0Y28cR-2" target="VgLmgjp3VI7VRG0Y28cR-4" edge="1">
          <mxGeometry relative="1" as="geometry" />
        </mxCell>
        <mxCell id="VgLmgjp3VI7VRG0Y28cR-24" style="edgeStyle=orthogonalEdgeStyle;rounded=0;orthogonalLoop=1;jettySize=auto;html=1;exitX=1;exitY=0.3333333333333333;exitDx=0;exitDy=0;exitPerimeter=0;entryX=0;entryY=0.5;entryDx=0;entryDy=0;" parent="1" source="VgLmgjp3VI7VRG0Y28cR-2" target="VgLmgjp3VI7VRG0Y28cR-3" edge="1">
          <mxGeometry relative="1" as="geometry" />
        </mxCell>
        <mxCell id="VgLmgjp3VI7VRG0Y28cR-25" style="edgeStyle=orthogonalEdgeStyle;rounded=0;orthogonalLoop=1;jettySize=auto;html=1;exitX=1;exitY=0.3333333333333333;exitDx=0;exitDy=0;exitPerimeter=0;entryX=0;entryY=0.5;entryDx=0;entryDy=0;" parent="1" source="VgLmgjp3VI7VRG0Y28cR-2" target="VgLmgjp3VI7VRG0Y28cR-5" edge="1">
          <mxGeometry relative="1" as="geometry" />
        </mxCell>
        <mxCell id="VgLmgjp3VI7VRG0Y28cR-39" style="edgeStyle=orthogonalEdgeStyle;rounded=0;orthogonalLoop=1;jettySize=auto;html=1;exitX=0;exitY=0.3333333333333333;exitDx=0;exitDy=0;exitPerimeter=0;entryX=1;entryY=0.5;entryDx=0;entryDy=0;" parent="1" source="VgLmgjp3VI7VRG0Y28cR-2" target="VgLmgjp3VI7VRG0Y28cR-38" edge="1">
          <mxGeometry relative="1" as="geometry" />
        </mxCell>
        <mxCell id="VgLmgjp3VI7VRG0Y28cR-2" value="Mahasiswa" style="shape=umlActor;verticalLabelPosition=bottom;verticalAlign=top;html=1;outlineConnect=0;" parent="1" vertex="1">
          <mxGeometry x="410" y="530" width="30" height="60" as="geometry" />
        </mxCell>
        <mxCell id="VgLmgjp3VI7VRG0Y28cR-3" value="Menampilkan Beranda" style="ellipse;whiteSpace=wrap;html=1;" parent="1" vertex="1">
          <mxGeometry x="590" y="330" width="120" height="80" as="geometry" />
        </mxCell>
        <mxCell id="VgLmgjp3VI7VRG0Y28cR-4" value="Menampilkan Ringkasan" style="ellipse;whiteSpace=wrap;html=1;" parent="1" vertex="1">
          <mxGeometry x="590" y="480" width="120" height="80" as="geometry" />
        </mxCell>
        <mxCell id="VgLmgjp3VI7VRG0Y28cR-36" style="edgeStyle=orthogonalEdgeStyle;rounded=0;orthogonalLoop=1;jettySize=auto;html=1;exitX=1;exitY=0.5;exitDx=0;exitDy=0;entryX=0;entryY=0.5;entryDx=0;entryDy=0;dashed=1;" parent="1" source="VgLmgjp3VI7VRG0Y28cR-5" target="VgLmgjp3VI7VRG0Y28cR-35" edge="1">
          <mxGeometry relative="1" as="geometry" />
        </mxCell>
        <mxCell id="VgLmgjp3VI7VRG0Y28cR-37" value="Include" style="edgeLabel;html=1;align=center;verticalAlign=middle;resizable=0;points=[];" parent="VgLmgjp3VI7VRG0Y28cR-36" vertex="1" connectable="0">
          <mxGeometry x="-0.1111" y="4" relative="1" as="geometry">
            <mxPoint x="1" y="4" as="offset" />
          </mxGeometry>
        </mxCell>
        <mxCell id="VgLmgjp3VI7VRG0Y28cR-5" value="Menampilkan Kuisioner" style="ellipse;whiteSpace=wrap;html=1;" parent="1" vertex="1">
          <mxGeometry x="590" y="660" width="120" height="80" as="geometry" />
        </mxCell>
        <mxCell id="VgLmgjp3VI7VRG0Y28cR-30" style="edgeStyle=orthogonalEdgeStyle;rounded=0;orthogonalLoop=1;jettySize=auto;html=1;exitX=0;exitY=0.5;exitDx=0;exitDy=0;entryX=0.5;entryY=0;entryDx=0;entryDy=0;dashed=1;" parent="1" source="VgLmgjp3VI7VRG0Y28cR-6" target="VgLmgjp3VI7VRG0Y28cR-29" edge="1">
          <mxGeometry relative="1" as="geometry">
            <Array as="points">
              <mxPoint x="350" y="700" />
            </Array>
          </mxGeometry>
        </mxCell>
        <mxCell id="VgLmgjp3VI7VRG0Y28cR-31" value="Include" style="edgeLabel;html=1;align=center;verticalAlign=middle;resizable=0;points=[];" parent="VgLmgjp3VI7VRG0Y28cR-30" vertex="1" connectable="0">
          <mxGeometry x="-0.0694" y="7" relative="1" as="geometry">
            <mxPoint x="-7" y="1" as="offset" />
          </mxGeometry>
        </mxCell>
        <mxCell id="VgLmgjp3VI7VRG0Y28cR-33" style="edgeStyle=orthogonalEdgeStyle;rounded=0;orthogonalLoop=1;jettySize=auto;html=1;exitX=1;exitY=0.5;exitDx=0;exitDy=0;entryX=0.5;entryY=0;entryDx=0;entryDy=0;dashed=1;startArrow=classic;startFill=1;endArrow=none;endFill=0;" parent="1" source="VgLmgjp3VI7VRG0Y28cR-6" target="VgLmgjp3VI7VRG0Y28cR-32" edge="1">
          <mxGeometry relative="1" as="geometry">
            <Array as="points">
              <mxPoint x="500" y="700" />
            </Array>
          </mxGeometry>
        </mxCell>
        <mxCell id="VgLmgjp3VI7VRG0Y28cR-34" value="Extend" style="edgeLabel;html=1;align=center;verticalAlign=middle;resizable=0;points=[];" parent="VgLmgjp3VI7VRG0Y28cR-33" vertex="1" connectable="0">
          <mxGeometry x="0.0249" y="-4" relative="1" as="geometry">
            <mxPoint x="1" y="-4" as="offset" />
          </mxGeometry>
        </mxCell>
        <mxCell id="VgLmgjp3VI7VRG0Y28cR-6" value="Menampilkan Keuangan" style="ellipse;whiteSpace=wrap;html=1;" parent="1" vertex="1">
          <mxGeometry x="365" y="660" width="120" height="80" as="geometry" />
        </mxCell>
        <mxCell id="VgLmgjp3VI7VRG0Y28cR-7" value="Menampilkan Jadwal" style="ellipse;whiteSpace=wrap;html=1;" parent="1" vertex="1">
          <mxGeometry x="140" y="660" width="120" height="80" as="geometry" />
        </mxCell>
        <mxCell id="VgLmgjp3VI7VRG0Y28cR-8" value="Melihat Kuisioner" style="ellipse;whiteSpace=wrap;html=1;" parent="1" vertex="1">
          <mxGeometry x="140" y="370" width="120" height="80" as="geometry" />
        </mxCell>
        <mxCell id="VgLmgjp3VI7VRG0Y28cR-9" value="Melakukan Login" style="ellipse;whiteSpace=wrap;html=1;" parent="1" vertex="1">
          <mxGeometry x="220" y="90" width="120" height="80" as="geometry" />
        </mxCell>
        <mxCell id="VgLmgjp3VI7VRG0Y28cR-10" value="Melakukan Logout" style="ellipse;whiteSpace=wrap;html=1;" parent="1" vertex="1">
          <mxGeometry x="140" y="220" width="120" height="80" as="geometry" />
        </mxCell>
        <mxCell id="VgLmgjp3VI7VRG0Y28cR-12" value="LUPA PASSWORD" style="ellipse;whiteSpace=wrap;html=1;" parent="1" vertex="1">
          <mxGeometry x="20" y="90" width="120" height="80" as="geometry" />
        </mxCell>
        <mxCell id="VgLmgjp3VI7VRG0Y28cR-13" value="" style="endArrow=classic;html=1;strokeWidth=2;rounded=0;exitX=1;exitY=0.5;exitDx=0;exitDy=0;entryX=0;entryY=0.5;entryDx=0;entryDy=0;dashed=1;targetPerimeterSpacing=4;endFill=0;" parent="1" source="VgLmgjp3VI7VRG0Y28cR-12" target="VgLmgjp3VI7VRG0Y28cR-9" edge="1">
          <mxGeometry width="50" height="50" relative="1" as="geometry">
            <mxPoint x="330" y="460" as="sourcePoint" />
            <mxPoint x="380" y="410" as="targetPoint" />
          </mxGeometry>
        </mxCell>
        <mxCell id="VgLmgjp3VI7VRG0Y28cR-15" value="Extend" style="edgeLabel;html=1;align=center;verticalAlign=middle;resizable=0;points=[];" parent="VgLmgjp3VI7VRG0Y28cR-13" vertex="1" connectable="0">
          <mxGeometry x="-0.0941" y="-7" relative="1" as="geometry">
            <mxPoint as="offset" />
          </mxGeometry>
        </mxCell>
        <mxCell id="VgLmgjp3VI7VRG0Y28cR-27" style="edgeStyle=orthogonalEdgeStyle;rounded=0;orthogonalLoop=1;jettySize=auto;html=1;entryX=0.5;entryY=1;entryDx=0;entryDy=0;dashed=1;" parent="1" source="VgLmgjp3VI7VRG0Y28cR-26" target="VgLmgjp3VI7VRG0Y28cR-7" edge="1">
          <mxGeometry relative="1" as="geometry" />
        </mxCell>
        <mxCell id="VgLmgjp3VI7VRG0Y28cR-28" value="Extend" style="edgeLabel;html=1;align=center;verticalAlign=middle;resizable=0;points=[];" parent="VgLmgjp3VI7VRG0Y28cR-27" vertex="1" connectable="0">
          <mxGeometry x="0.0278" y="1" relative="1" as="geometry">
            <mxPoint y="1" as="offset" />
          </mxGeometry>
        </mxCell>
        <mxCell id="VgLmgjp3VI7VRG0Y28cR-26" value="Mencetak Jadwal" style="ellipse;whiteSpace=wrap;html=1;" parent="1" vertex="1">
          <mxGeometry x="140" y="820" width="120" height="80" as="geometry" />
        </mxCell>
        <mxCell id="VgLmgjp3VI7VRG0Y28cR-29" value="Mengisi Pembayaran" style="ellipse;whiteSpace=wrap;html=1;" parent="1" vertex="1">
          <mxGeometry x="290" y="820" width="120" height="80" as="geometry" />
        </mxCell>
        <mxCell id="VgLmgjp3VI7VRG0Y28cR-32" value="Mencetak Nota" style="ellipse;whiteSpace=wrap;html=1;" parent="1" vertex="1">
          <mxGeometry x="440" y="820" width="120" height="80" as="geometry" />
        </mxCell>
        <mxCell id="VgLmgjp3VI7VRG0Y28cR-35" value="Mengisi Kuisioner" style="ellipse;whiteSpace=wrap;html=1;" parent="1" vertex="1">
          <mxGeometry x="820" y="660" width="120" height="80" as="geometry" />
        </mxCell>
        <mxCell id="VgLmgjp3VI7VRG0Y28cR-38" value="Menampilkan KHS" style="ellipse;whiteSpace=wrap;html=1;" parent="1" vertex="1">
          <mxGeometry x="140" y="500" width="120" height="80" as="geometry" />
        </mxCell>
        <mxCell id="VgLmgjp3VI7VRG0Y28cR-41" style="edgeStyle=orthogonalEdgeStyle;rounded=0;orthogonalLoop=1;jettySize=auto;html=1;exitX=1;exitY=0.5;exitDx=0;exitDy=0;entryX=0;entryY=0.5;entryDx=0;entryDy=0;dashed=1;startArrow=none;startFill=0;endArrow=classic;endFill=1;" parent="1" source="VgLmgjp3VI7VRG0Y28cR-40" target="VgLmgjp3VI7VRG0Y28cR-38" edge="1">
          <mxGeometry relative="1" as="geometry" />
        </mxCell>
        <mxCell id="VgLmgjp3VI7VRG0Y28cR-42" value="Extend" style="edgeLabel;html=1;align=center;verticalAlign=middle;resizable=0;points=[];" parent="VgLmgjp3VI7VRG0Y28cR-41" vertex="1" connectable="0">
          <mxGeometry x="0.0578" y="-4" relative="1" as="geometry">
            <mxPoint x="-1" y="-4" as="offset" />
          </mxGeometry>
        </mxCell>
        <mxCell id="VgLmgjp3VI7VRG0Y28cR-40" value="Mencetak KHs" style="ellipse;whiteSpace=wrap;html=1;" parent="1" vertex="1">
          <mxGeometry x="-130" y="500" width="120" height="80" as="geometry" />
        </mxCell>
      </root>
    </mxGraphModel>
  </diagram>
</mxfile>
